<svg xmlns="http://www.w3.org/2000/svg" id="_レイヤー_1" viewBox="0 0 25 25"><defs><style>.cls-1{fill:#313232}</style></defs><path d="m21.23 13.41-4.09-2.36V6.33c0-.13-.07-.25-.18-.32l-4.27-2.47a.35.35 0 0 0-.37 0L8.05 6.01c-.11.07-.18.19-.18.32v4.72l-4.09 2.36c-.11.07-.18.19-.18.32v4.93c0 .13.07.25.18.32l4.27 2.47c.06.03.12.05.18.05s.13-.02.18-.05l4.09-2.36 4.09 2.36c.06.03.12.05.18.05s.13-.02.18-.05l4.27-2.47c.11-.07.18-.19.18-.32v-4.93c0-.13-.07-.25-.18-.32ZM12.5 4.3l3.9 2.25v4.5l-3.9 2.25-3.9-2.25v-4.5zM8.23 20.7l-3.9-2.25v-4.5l3.9-2.25 3.9 2.25v4.5zm12.44-2.25-3.9 2.25-3.9-2.25v-4.5l.59-.34 3.31-1.91 3.9 2.25z" class="cls-1"/><path d="M16.96 19.09c.07.12.19.18.32.18.06 0 .13-.02.19-.05l2.16-1.28c.11-.07.18-.19.18-.32v-1.81c0-.2-.17-.37-.37-.37s-.37.17-.37.37v1.6l-1.98 1.18c-.17.1-.23.33-.13.5" class="cls-1"/></svg>