<svg xmlns="http://www.w3.org/2000/svg" id="_レイヤー_1" viewBox="0 0 25 25"><defs><style>.cls-1{fill:#313232}</style></defs><path d="M8.3 12.64c-.2 0-.37.17-.37.37v4.54c0 .2.17.37.37.37s.37-.17.37-.37v-4.54c0-.2-.17-.37-.37-.37M8.3 4.13c-.2 0-.37.17-.37.37v4.54c0 .2.17.37.37.37s.37-.17.37-.37V4.5c0-.2-.17-.37-.37-.37M9.7 11.81a.374.374 0 0 0-.52 0c-.14.14-.14.38 0 .52l2.07 2.07c.07.07.17.11.26.11s.19-.04.26-.11c.14-.14.14-.38 0-.52zM6.98 10.13c.07.07.17.11.26.11s.19-.04.26-.11c.14-.14.14-.38 0-.52L5.35 7.46a.374.374 0 0 0-.52 0c-.14.14-.14.38 0 .52zM7.13 11.59l-2.3 2.3c-.14.14-.14.38 0 .52.07.07.17.11.26.11s.19-.04.26-.11l2.3-2.3c.14-.14.14-.38 0-.52a.374.374 0 0 0-.52 0M9.52 10.24l2.26-2.26c.14-.14.14-.38 0-.52a.374.374 0 0 0-.52 0L9 9.72c-.14.14-.14.38 0 .52.07.07.17.11.26.11s.19-.04.26-.11M12.29 10.56h-1.62c-.2 0-.37.17-.37.37s.17.37.37.37h1.62c.2 0 .37-.17.37-.37s-.17-.37-.37-.37M6.39 10.93c0-.2-.17-.37-.37-.37H4.4c-.2 0-.37.17-.37.37s.17.37.37.37h1.62c.2 0 .37-.17.37-.37M17.75 17.47c-.2 0-.37.17-.37.37v2.66c0 .2.17.37.37.37s.37-.17.37-.37v-2.66c0-.2-.17-.37-.37-.37M17.75 11.67c-.2 0-.37.17-.37.37v2.66c0 .2.17.37.37.37s.37-.17.37-.37v-2.66c0-.2-.17-.37-.37-.37M18.97 17.1a.374.374 0 0 0-.52 0c-.14.14-.14.38 0 .52l1.3 1.3c.07.07.17.11.26.11s.19-.04.26-.11c.14-.14.14-.38 0-.52zM16.48 15.63c.07.07.17.11.26.11s.19-.04.26-.11c.14-.14.14-.38 0-.52l-1.35-1.35a.374.374 0 0 0-.52 0c-.14.14-.14.38 0 .52zM16.54 16.94l-1.46 1.46c-.14.14-.14.38 0 .52.07.07.17.11.26.11s.19-.04.26-.11l1.46-1.46c.14-.14.14-.38 0-.52a.374.374 0 0 0-.52 0M18.68 15.74c.09 0 .19-.04.26-.11l1.35-1.35c.14-.14.14-.38 0-.52a.374.374 0 0 0-.52 0l-1.35 1.35c-.14.14-.14.38 0 .52.07.07.17.11.26.11M20.6 15.97h-1.17c-.2 0-.37.17-.37.37s.17.37.37.37h1.17c.2 0 .37-.17.37-.37s-.17-.37-.37-.37M16.43 16.34c0-.2-.17-.37-.37-.37h-1.17c-.2 0-.37.17-.37.37s.17.37.37.37h1.17c.2 0 .37-.17.37-.37" class="cls-1"/></svg>