<svg xmlns="http://www.w3.org/2000/svg" id="_レイヤー_1" viewBox="0 0 25 25"><defs><style>.cls-1{fill:#313232}</style></defs><path d="M15.86 13.57c-.36-.43-.86-.64-1.46-.61-.55.03-1.11.29-1.52.69-.41-.4-.97-.66-1.52-.69-.59-.03-1.1.18-1.46.61-.4.47-.53 1.12-.38 1.83.29 1.34 1.52 2.68 3.21 3.5.05.02.1.04.16.04s.11-.01.16-.04c1.69-.81 2.92-2.15 3.21-3.5.15-.71.01-1.36-.38-1.83Zm-.34 1.68c-.23 1.07-1.26 2.19-2.65 2.91-1.39-.71-2.42-1.84-2.65-2.91-.07-.34-.09-.82.23-1.2.24-.29.55-.36.79-.36h.07c.48.03.98.32 1.25.73.14.21.48.21.61 0 .27-.41.78-.71 1.26-.73.25-.01.59.04.86.35.32.38.3.86.23 1.2Z" class="cls-1"/><path d="M19.64 11.17V5.34c0-1.75-1.71-2.28-2.72-1.57v-.16c0-1.77-1.74-2.29-2.75-1.55-.15-1.72-2.03-2.1-2.91-1.21-.22.22-.46.62-.51 1.24-1.01-.72-2.74-.22-2.74 1.53v4.84c-.28-.2-.61-.31-.96-.31-.86 0-1.76.69-1.76 1.97v5.36c0 4.27 2.8 5.82 2.9 5.87.27.16.38.5.39 1.24v1.69c0 .2.17.37.37.37s.37-.17.37-.37v-1.69c-.01-.69-.08-1.47-.76-1.87-.1-.06-2.53-1.42-2.53-5.23v-5.36c0-1.27 1.17-1.49 1.67-.95.21.22.31.55.31.95v1.93a.37.37 0 1 0 .74 0V3.6c0-1.58 1.99-1.58 1.99 0v6.63c0 .2.17.37.37.37s.37-.17.37-.37V2.26c0-1.24 1.14-1.41 1.67-.89.21.21.32.52.32.89v7.97c0 .2.17.37.37.37s.37-.17.37-.37V3.6c0-.81.49-1.17.98-1.17s1.01.37 1.01 1.17v6.63c0 .2.17.37.37.37s.37-.17.37-.37V5.34c0-1.24 1.14-1.41 1.67-.89.21.21.32.52.32.89v5.86c0 .07.62 7.48-2.17 9.52-.7.51-.85.97-.87 1.49-.01.53 0 2.05 0 2.05h.74s-.01-1.5 0-2.03c0-.3.05-.54.56-.92 3.12-2.28 2.49-9.86 2.47-10.15Z" class="cls-1"/></svg>