<svg xmlns="http://www.w3.org/2000/svg" viewBox="0 0 25 25"><path d="M19.48 21.35c-.86-.66-1.56-1.25-2-1.69-.32-.31-.66-.68-1.01-1.09.73-.73 3.18-3.53 1.97-7.01C17.43 8.68 14.7 7 11.81 5.23c-1.1-.68-2.24-1.38-3.29-2.16A.36.36 0 0 0 8.26 3a.4.4 0 0 0-.24.13c-3.2 4.07-3.53 11.03-.68 14.31 1.74 2.01 3.55 2.6 5.07 2.6 1.67 0 2.98-.71 3.49-1.03q.57.66 1.08 1.17c.48.47 1.17 1.06 2.07 1.75.07.05.15.08.22.08.11 0 .22-.05.29-.14.12-.16.09-.39-.07-.52Zm-11.6-4.39c-2.54-2.92-2.26-9.29.5-13.09.99.71 2.03 1.36 3.04 1.98 2.78 1.7 5.4 3.31 6.32 5.95 1.06 3.03-1.06 5.5-1.75 6.2-.75-.91-1.54-1.98-2.32-3.14l1.28-2.33c.1-.18.03-.4-.15-.5s-.4-.03-.5.15l-1.1 1.99c-.53-.82-1.05-1.68-1.53-2.55l1.08-1.97c.1-.18.03-.4-.15-.5s-.4-.03-.5.15l-.85 1.55c-.51-.95-.97-1.91-1.36-2.85-.08-.19-.29-.28-.48-.2s-.28.29-.2.48c.42 1.01.93 2.05 1.48 3.09l-1.91.46a.364.364 0 0 0 .09.72c.03 0 .06 0 .09-.01l2.11-.51c.49.88 1.02 1.74 1.56 2.57l-2.22.53a.364.364 0 0 0 .09.72c.03 0 .06 0 .09-.01l2.47-.59c.79 1.18 1.6 2.27 2.35 3.19-.96.59-4.3 2.23-7.53-1.49Z" style="fill:#313232"/></svg>