<svg xmlns="http://www.w3.org/2000/svg" id="_レイヤー_1" viewBox="0 0 25 25"><defs><style>.cls-1{fill:#313232}</style></defs><path d="M13.78 3.7c-.2 0-.37.17-.37.37s.17.37.37.37c4.18 0 7.59 3.4 7.59 7.58s-3.4 7.58-7.59 7.58c-.85 0-1.67-.14-2.46-.41-.19-.07-.4.04-.47.23s.04.4.23.47c.87.3 1.78.45 2.71.45 4.59 0 8.32-3.73 8.32-8.32S18.37 3.7 13.78 3.7" class="cls-1"/><path d="M13.11 13.48c.07.07.17.11.27.11.09 0 .18-.03.25-.1l4.42-4.07c.15-.14.16-.37.02-.52a.365.365 0 0 0-.52-.02l-4.15 3.83-2.35-2.44a.357.357 0 0 0-.52 0c-.15.14-.15.37 0 .52l2.61 2.7ZM9.12 14.82c-.38-.76-1.06-1.2-1.89-1.23-.29-.01-.56.04-.83.13a7.4 7.4 0 0 1-.2-1.7c0-2.21.96-4.28 2.6-5.71l-.4 1.72c-.05.2.08.4.27.44h.08c.17 0 .32-.11.36-.28l.64-2.72q.015-.075 0-.15c0-.02-.01-.03-.02-.04l-.03-.09-.01-.01v-.01c-.01-.01-.03-.02-.04-.03-.02-.02-.05-.04-.07-.06-.02 0-.04-.02-.05-.02a.3.3 0 0 0-.09-.02H6.78c-.2 0-.37.17-.37.37s.17.37.37.37h1.54a8.3 8.3 0 0 0-2.85 6.26c0 .69.09 1.38.26 2.04-.15.12-.29.25-.41.4-.81-.14-1.66.27-2.12 1.05-.5.85-.36 1.85.35 2.61-.15.58-.01 1.21.4 1.71.44.53 1.09.8 1.75.74.33.46.87.72 1.49.72.21 0 .44-.03.66-.09.81-.22 1.59-.88 1.62-1.88.86-.48 1.29-1.3 1.2-2.27-.1-1-.76-1.94-1.55-2.24Zm-.18 3.95c-.14.07-.23.21-.21.37.07.76-.54 1.2-1.08 1.35-.53.15-1.18.06-1.44-.47a.36.36 0 0 0-.33-.21H5.8c-.5.11-.98-.06-1.3-.45-.29-.36-.37-.82-.21-1.2.06-.15.03-.31-.09-.42-.6-.54-.75-1.24-.38-1.86.29-.49.91-.87 1.54-.65.17.06.36-.02.45-.18.23-.45.8-.76 1.39-.73.35.01.98.15 1.31.94.04.11.14.19.25.21.56.14 1.1.89 1.17 1.65.04.42-.04 1.2-1 1.64Z" class="cls-1"/></svg>