<svg xmlns="http://www.w3.org/2000/svg" viewBox="0 0 155.41 118.63"><path d="M73.84 24.08c-.65.67-1.24 1.32-2.03 1.89-1.51 1.09-5.78.58-7.75.88-1.28.2-2.26.83-3.54.11-.43-.24-.98-.85-1.41-1.17-.19-.15-.48-.18-.63-.36-.36-.44-.7-1.52-.88-2.1-.49-1.56-.67-2.85-.56-4.49.02-.33.2-.65.2-.99 0-1.19-.73-1.51.49-2.58.87-.77 1.46-.69 2.37-1.1.62-.28.68-.5 1.5-.78 3.78-1.3 7.08-1.71 11.03-.62 1.15.32 1.86.99 1.92 2.22.04.87-.03 1.64.15 2.55.13.69.69 1.8.69 2.39v1.58c-.01 1.34-.75 1.73-1.56 2.57ZM64.35 56.23c-.19.18-1.03 1.11-1.1 1.16-.74.49-2.54.9-3.46.95-.42.02-.98-.1-1.47-.06-2.47.16-5.22.86-7.67.94-.55.02-1.75-.75-1.94-1.24-.09-.22-.02-.43-.08-.62-.28-.91-.62-1.75-.76-2.71-.15-1.03.18-1.99.09-3.07-.04-.47-.25-.77-.2-1.29.02-.22.48-2.28.55-2.43.05-.12.81-.82.97-.92.68-.42 3.19-1.64 3.9-1.75.61-.1 1.33-.02 1.96-.12.69-.1 1.47-.43 2.19-.49.63-.05 1.42.1 2.07.06.26-.02.44-.21.8-.16s1.88.68 2.32.86c1.64.67 3.21 1.56 3.75 3.4.09.29-.08.97-.04 1.31.07.61.58 1.41.59 1.91 0 .2-.27.99-.36 1.24-.47 1.43-1.04 1.98-2.1 3.01ZM19.79 61.18c-1.37-1.25-2.27-5.11-2.33-6.95-.02-.82-.08-1.4.38-2.11.26-.41 1.65-1.81 2.08-1.89.34-.07.75.04 1.05-.04.18-.05.56-.23.86-.33.95-.31 3.42-1.17 4.31-1.04.17.02.28.21.49.2.33-.01.72-.45 1.1-.5.65-.09 1.75.08 2.58.02 1.11-.07 2.04-.07 3.15.3.44.15.96.51 1.12.96.35.99.35 2.11.67 3.1.34 1.05 1.23 2.85 1.04 3.97-.16.97-.14 2.07-.4 3.08-.2.77-.73 1.52-1.54 1.74-2.82.76-6.62.44-9.57.65-1.01.07-2.7.62-3.54.11-.22-.13-1.19-1.03-1.45-1.27M19.62 38.9c-.03.05-.2.11-.28.26-.13.22-.15.59-.27.72-.98 1.03-5.18 1.37-6.77 1.66-1.26.23-2.49.71-3.8.67-.41-.01-1.26-.11-1.63-.26-.18-.07-2.03-1.56-2.15-1.72-.18-.26-.17-.51-.3-.7-.1-.16-.3-.18-.42-.37-.19-.29-1.07-3.23-1.11-3.65-.14-1.45.37-3.21.37-4.69.43-.63.95-1.32 1.73-1.55.9-.26 2.04-.7 2.88-.9.3-.07.75-.01 1.09-.09.54-.12 1.27-.49 1.82-.56 1.13-.16 3.81.04 5.02.12.83.05 1.61.64 2.37.9.33.11.74.06 1.07.22.84.43.45 1.6.5 2.38.03.53.22 1.03.21 1.59-.02.85-.32 1.62-.21 2.58.06.53.55.95.6 1.38.08.61-.43 1.47-.74 2ZM46.46 35.65c-.23.23-.62.33-.93.4-1.04.23-2.28.17-3.42.35-1.34.22-2.76.73-4 .96-.69.13-1.37.07-1.97-.31-.36-.23-.52-1.02-.79-1.34s-1.75-1.2-1.87-1.45c-.3-.59-.78-2.04-.96-2.71-.73-2.63-.92-4.41 1.73-5.9.91-.51.91-.44 1.75-1.13 1.57-1.28 6.67-2.2 8.64-1.82.39.08.74.26 1.14.34 1.1.23 3.05.19 3.19 1.68.18 1.9-.68 3.79-.88 5.65-.15 1.36-.09 2.14-.72 3.45-.22.47-.6 1.52-.91 1.82ZM39.13 68.84c1.18-.11 2.59.06 3.7.33.56.14 1.46.32 1.77.89.15.28.17.7.34 1.05.23.49.62 1.02.81 1.57.5 1.4.6 4.07.23 5.48-.12.45-.39 1.26-.8 1.48-1.77.69-3.65.98-5.52 1.22-1.49.19-3 .22-4.5.26s-2.94 1.01-4.46.38c-1.2-1.95-2.48-4.86-2.34-7.18.03-.5.22-.97.29-1.4.12-.74.04-1.27.46-2.02.1-.18.55-.56.74-.64 1-.44 1.65-.25 2.62-.35 2.2-.24 4.51-.87 6.67-1.06ZM36.19 0c.95.26 2.45.21 3.35.57.1.04 1.58 1.16 1.63 1.24.25.37.44 1.16.65 1.54.25.44.5.44.63 1.16.5 2.81.13 4.41-1.64 6.68-1.18 1.51-4.87 2.07-6.73 2.59-.9.25-1.78.63-2.68.87-1.56-.66-2.7-.64-3.64-2.2-.56-.93-1.02-2.07-1.59-3.08-1.02-1.83-.71-4.21.97-5.53.58-.46 1.3-.6 1.82-.95.22-.14.26-.37.41-.48 2.02-1.54 4.4-1.9 6.81-2.42ZM12.69 65.35c.31.21.94.42 1.21.62.83.64 2.21 3.76 2.2 4.8 0 .43-.24 1.25-.27 1.7-.07.99.25 2-.45 2.82-1.11 1.29-7.21 2.08-9.09 2.42-.87.16-1.55.6-2.45.11S2.98 76.75 2.58 76C1.84 74.6.96 72.91.41 71.43c-.38-1.01-.68-2.65-.04-3.61.1-.15 1.4-1.53 1.5-1.57.87-.39 3.39-.87 4.41-1.05s1.72.12 2.79-.19c.22-.06.39-.26.58-.31.35-.08 2.14.1 2.53.2.29.07.38.36.5.44ZM66.81 104.95c.57.36.7 1.62.87 2.15.12.36.69.91.81 1.27.37 1.09-.04 1.67.03 2.54.02.23.19.44.2.7 0 .3-.18 1.42-.31 1.68-.22.42-.99.76-1.33 1.05-.22.19-.38.61-.7.78-.7.37-2.81.46-3.66.51-2.06.13-4.13.01-6.17.04-1.04.01-1.65-.18-2.58-.71-.77-.43-1.06-1.12-1.21-1.97-.22-1.24-.07-2.76-.22-4.05-.09-.81-.53-1.11-.09-2 .46-.95 1.18-1.35 2.16-1.61 2.53-.66 4.94-1.16 7.52-1.5.36-.05 1.09-.17 1.39-.17.51 0 .89.38 1.28.46.23.05.47-.03.74.05.33.09.63.51.9.7.09.06.27.02.36.08ZM23.33 107.05c.34-.42 1.58-.74 2.12-.82 1.01-.14 1.44-.27 2.39-.47 1.83-.39 2.66.02 4.35.13 1.02.07 2.38-.41 3.34.16.13.08.89.8.96.92.56.92.39 3.06.39 4.17 0 .17-.11.34-.1.5.07 1.43.78 1.96-.02 3.46-.65 1.2-1.06 1.01-2.09 1.48-.42.19-1.09.69-1.52.76-.45.07-.88-.09-1.26-.07-.29.02-.63.23-.93.27-.71.1-1.37-.08-1.96-.06-.47.02-1.24.33-1.7.34-.76.02-3.17-.61-3.86-.99-.22-.12-.55-.71-.63-.96-.42-1.26.03-3.17.07-4.54.02-.69.07-1.38.1-2.08.03-.63-.1-1.68.32-2.21ZM56.42 87.17c.2.28.58 1.2.68 1.55.05.18.34 1.43.34 1.55 0 .16-.08.71-.09.98-.02.38-.05 1.16-.12 1.47-.13.58-1.2 1.08-1.67 1.51-.37.34-.61.77-1 1.08-.91.72-5.08 1.69-6.29 1.75-.65.03-2.17.07-2.75-.02-.09-.02-.92-.3-.96-.33-.13-.09-.13-.28-.22-.38-1.61-1.87-1.83-4.21-2.37-6.56 0-.94 1.37-2.7 2.1-3.27 1.4-1.09 3.3-1.45 5-1.65 1.36-.16 2.5.38 3.75.71.54.15 1.12.12 1.65.33.46.18 1.68.9 1.95 1.27ZM21.96 96.62c-.09.11-.53.56-.66.68-.71.67-1.95.42-2.82.55-.5.07-1.01.51-1.6.58-1.09.13-2.18.26-3.27.4-1.37.16-4.41.61-5.62.19-.74-.26-.86-1.29-1.07-1.9-.44-1.26-.92-2.78-.54-4.13.17-.59 1.42-2.81 1.94-3.01.57-.22 2.04-.61 2.66-.7 1.7-.25 3.47-.24 5.21-.46.21-.03.4-.16.61-.18.23-.03 2.44.61 2.71.74.21.1.44.52.65.64.25.15.57.13.84.35.5.41.38.71.55 1.14.44 1.11 1.13 2.62.88 3.85-.05.24-.33 1.11-.46 1.27ZM142.52 17.91c1.72 1.57 5.7 5.46 6.46 7.67.08.23 0 .47.1.7.06.15.35.4.46.63.25.55.25.53.52.97.29.5.25.84.39 1.3.15.5.55.8.69 1.39.68 2.79 2.29 5.28 2.78 8.17.19 1.12.32 1.9.57 3.02 1.02 4.55 1.02 8.69.82 13.28-.16 3.84-.29 7.13-1.06 10.94-.7 3.49-1.43 7.31-2.72 10.63-2.13 5.49-4.32 10.95-7.34 16.02-.94 1.58-1.46 3.33-2.49 4.96s-1.39 3.08-2.19 4.67c-.09.18-.26.26-.34.45-.55 1.3-.9 3.6-1.65 4.72-.19.28-.69.46-.92.66-.94.83-1.74 2.15-3.17 1.92-.54-.09-1.12-.5-1.7-.56-1.38-.17-2.92-.15-4.29-.42-.41-.08-.88-.44-1.06-.82-.11-.24-.39-1.56-.38-1.83.03-.59.95-1.99 1.25-2.63 1.72-3.65 2.79-7.04 4.11-10.81 1.55-4.42 3.45-8.66 5.05-13.06 2.68-7.41 6.27-15.38 7.41-23.25.23-1.55.63-4.29.6-5.79s-.59-4.86-.91-6.39c-.23-1.07-.69-2.25-.93-3.35-.17-.78-.14-1.63-.37-2.43-1-3.61-2.85-6.67-4.45-9.97-.25-.52-.39-1.11-.66-1.63-.78-1.52-1.89-2.49-3.17-3.47-2.34-1.78-4.89-3.27-7.58-4.36-2.74-1.11-5.37-1.11-8.17-2.36-2.17-.97-3.53-1.09-5.85-1.53-1.66-.31-2.33-.71-4.2-.56-.96.08-1.9.15-2.83.39-.71.18-1.36.31-2.01.55-.74.28-1.98.72-2.64 1.11-.57.34-1.05 1.06-1.66 1.31-.77.32-1.29.52-2.07.89-.32.15-.74.16-1 .28-.29.14-.54.76-.8.99-.2.18-.45.22-.63.36-1.97 1.57-5.45 5.97-6.44 8.33-.15.36-.12.82-.39 1.2-.53.74-.45.54-.84 1.44-1.33 3.1-2.33 6.71-2.75 10.1-.21 1.69.12 3.74-.59 5.4-.25.59-.64.38-.86.57-.06.05-.09.26-.18.37-1.45 1.92-2.14 4.71-3.11 6.94-.56 1.28-1.56 2.47-2 3.96-.22.73-.19 1.6-.35 2.34-.13.61-.42 1.23-.54 1.85-.37 1.89-.13 3.61-.33 5.47-.37 3.52-.63 7.08-.4 10.62.07 1.03.41 1.87.48 2.72.14 1.74.58 4.01 1.24 5.66.78 1.94 3.1 3.39 4.81 4.39 4.98 2.89 9.78 3.53 15.47 3.44.49 0 1.07.12 1.59.07.42-.04.7-.34 1.18-.4.82-.1 2.99.07 3.8.3.87.24 1.47.9 2.2 1.36 1.4.87 2.7 1.32 3.46 2.97.53 1.15.39 4.38.47 5.82.17 3.07.76 6.19.49 9.31-.05.58-1.09 2.9-1.55 3.15-.16.09-1.47.27-1.74.28-.12 0-.25-.08-.39-.08-1.16-.03-2.14.12-3.33.2-.58.04-.63.42-1.27-.1-.56-.45-1.14-2.47-1.34-3.24-.33-1.3-.66-3-.85-4.33-.11-.76-.47-5.67-.71-5.83-.27-.11-.59.08-.82.07-1.27-.07-2.58-.3-3.88-.25-1.07.04-2.98.58-3.95.47-.36-.04-.83-.42-1.11-.48-.65-.15-1.07-.2-1.77-.39-1.27-.35-2.52-.73-3.8-1.02-1.14-.26-.9-.29-1.83-.73-.34-.16-1.01-.2-1.29-.39-1.57-1.07-4.45-2.67-5.64-4.04-1.48-1.71-3.29-2.98-4.45-5.07-2.64-4.75-4.04-11.3-3.26-16.73.87-6.05 2.88-13.28 5.15-18.97.55-1.39 1.4-2.78 1.93-4.14s.8-3.01 1.44-4.44c.5-1.11 2.79-4.36 2.81-5.22.02-.6-.19-1.4-.18-2 .07-9.05 4.93-22.46 13.17-26.89.63-.34 2.21-.83 2.61-1.14.04-.03.57-.68.6-.72.13-.22.03-.48.23-.74s1.57-.96 1.93-1.13c1.27-.61 2.34-1.04 3.58-1.75 3.77-2.13 11.02-2.25 15.18-1.62 6.18.93 11.89 1.61 17.57 4.57 2.82 1.47 6.27 3.55 8.6 5.68Z"/><path d="M102.16 46.32c.39.26-.39 1.42-.59 1.72-.12.18-.42.4-.46.54-.08.28.17.39.18.58.04.64-.79 2.53-1.11 3.17-.06.12-.03.28-.08.36-.03.06-.73.44-.85.48-.33.11-.91.12-1.27.3-.34.17-.11.47-.84.55-1.27.12-1.6-.04-2.7-.44-1.74-.64-3-1.53-4.61-2.3-.37-.18-1.09-.34-1.46-.51-.65-.31-.6-1.77-.71-2.37-.06-.33-.34-.63-.37-.83-.04-.31.18-.54.19-.8.02-.42-.32-1.04.44-1.15s.92.43 1.49.79c.68.42 3.99 1.41 4.79 1.43 1.17.02 2.66-.69 3.75-1.08 1.37-.5 2.77-.68 4.22-.41Z"/></svg>